<mxfile host="app.diagrams.net" agent="Mozilla/5.0 (Macintosh; Intel Mac OS X 10_15_7) AppleWebKit/537.36 (KHTML, like Gecko) Chrome/133.0.0.0 Safari/537.36" version="26.1.0">
  <diagram name="第 1 页" id="KLoRAD8Rr4eNPZWAdf4I">
    <mxGraphModel dx="734" dy="485" grid="1" gridSize="10" guides="1" tooltips="1" connect="1" arrows="1" fold="1" page="1" pageScale="1" pageWidth="827" pageHeight="1169" math="0" shadow="0">
      <root>
        <mxCell id="0" />
        <mxCell id="1" parent="0" />
        <mxCell id="TyisrgHagVBHa4376Sq0-4" style="edgeStyle=orthogonalEdgeStyle;rounded=0;orthogonalLoop=1;jettySize=auto;html=1;entryX=0.5;entryY=0;entryDx=0;entryDy=0;" edge="1" parent="1" source="lLpGI7_uiI3f87P-loz6-13" target="TyisrgHagVBHa4376Sq0-2">
          <mxGeometry relative="1" as="geometry" />
        </mxCell>
        <mxCell id="lLpGI7_uiI3f87P-loz6-13" value="参数校验" style="rounded=0;whiteSpace=wrap;html=1;fontFamily=宋体;" parent="1" vertex="1">
          <mxGeometry x="361.75" y="110" width="75.5" height="20" as="geometry" />
        </mxCell>
        <mxCell id="TyisrgHagVBHa4376Sq0-8" style="edgeStyle=orthogonalEdgeStyle;rounded=0;orthogonalLoop=1;jettySize=auto;html=1;entryX=0.5;entryY=0;entryDx=0;entryDy=0;" edge="1" parent="1" source="lLpGI7_uiI3f87P-loz6-14" target="lLpGI7_uiI3f87P-loz6-15">
          <mxGeometry relative="1" as="geometry" />
        </mxCell>
        <mxCell id="lLpGI7_uiI3f87P-loz6-14" value="根据视频类型，使用策略模式&lt;font face=&quot;Times New Roman&quot;&gt;O(1)&lt;/font&gt;复杂度获取&lt;font face=&quot;Times New Roman&quot;&gt;handler&lt;/font&gt;" style="rounded=0;whiteSpace=wrap;html=1;fontFamily=宋体;" parent="1" vertex="1">
          <mxGeometry x="321.75" y="200" width="155.5" height="30" as="geometry" />
        </mxCell>
        <mxCell id="lLpGI7_uiI3f87P-loz6-30" style="edgeStyle=orthogonalEdgeStyle;rounded=0;orthogonalLoop=1;jettySize=auto;html=1;entryX=0.5;entryY=0;entryDx=0;entryDy=0;fontFamily=Times New Roman;" parent="1" source="lLpGI7_uiI3f87P-loz6-29" target="lLpGI7_uiI3f87P-loz6-13" edge="1">
          <mxGeometry relative="1" as="geometry">
            <mxPoint x="399.5" y="123" as="targetPoint" />
          </mxGeometry>
        </mxCell>
        <mxCell id="lLpGI7_uiI3f87P-loz6-29" value="开始" style="rounded=1;whiteSpace=wrap;html=1;fontFamily=宋体;" parent="1" vertex="1">
          <mxGeometry x="374.5" y="64" width="50" height="20" as="geometry" />
        </mxCell>
        <mxCell id="TyisrgHagVBHa4376Sq0-5" style="edgeStyle=orthogonalEdgeStyle;rounded=0;orthogonalLoop=1;jettySize=auto;html=1;entryX=0.5;entryY=0;entryDx=0;entryDy=0;" edge="1" parent="1" source="TyisrgHagVBHa4376Sq0-2" target="lLpGI7_uiI3f87P-loz6-14">
          <mxGeometry relative="1" as="geometry" />
        </mxCell>
        <mxCell id="TyisrgHagVBHa4376Sq0-2" value="获取单例工厂对象" style="rounded=0;whiteSpace=wrap;html=1;fontFamily=宋体;" vertex="1" parent="1">
          <mxGeometry x="344.69" y="153" width="109.63" height="20" as="geometry" />
        </mxCell>
        <mxCell id="TyisrgHagVBHa4376Sq0-12" style="edgeStyle=orthogonalEdgeStyle;rounded=0;orthogonalLoop=1;jettySize=auto;html=1;entryX=0.5;entryY=0;entryDx=0;entryDy=0;" edge="1" parent="1" source="lLpGI7_uiI3f87P-loz6-15" target="TyisrgHagVBHa4376Sq0-9">
          <mxGeometry relative="1" as="geometry" />
        </mxCell>
        <mxCell id="lLpGI7_uiI3f87P-loz6-15" value="" style="rounded=0;whiteSpace=wrap;html=1;fontFamily=Times New Roman;" parent="1" vertex="1">
          <mxGeometry x="340.5" y="261" width="118" height="80" as="geometry" />
        </mxCell>
        <mxCell id="lLpGI7_uiI3f87P-loz6-31" value="Mp4Handler" style="rounded=1;whiteSpace=wrap;html=1;fontSize=9;arcSize=42;rotation=-90;horizontal=1;fontFamily=Times New Roman;" parent="1" vertex="1">
          <mxGeometry x="330" y="299" width="50" height="20" as="geometry" />
        </mxCell>
        <mxCell id="lLpGI7_uiI3f87P-loz6-32" value="Avi Handler" style="rounded=1;whiteSpace=wrap;html=1;fontSize=9;arcSize=42;rotation=-90;fontFamily=Times New Roman;" parent="1" vertex="1">
          <mxGeometry x="415.75" y="299" width="50" height="20" as="geometry" />
        </mxCell>
        <mxCell id="lLpGI7_uiI3f87P-loz6-33" value="MovHandler" style="rounded=1;whiteSpace=wrap;html=1;fontSize=9;arcSize=42;rotation=-90;fontFamily=Times New Roman;" parent="1" vertex="1">
          <mxGeometry x="361" y="299" width="50" height="20" as="geometry" />
        </mxCell>
        <mxCell id="lLpGI7_uiI3f87P-loz6-35" value="factory" style="text;html=1;align=center;verticalAlign=middle;whiteSpace=wrap;rounded=0;fontFamily=Times New Roman;" parent="1" vertex="1">
          <mxGeometry x="334" y="258" width="60" height="30" as="geometry" />
        </mxCell>
        <mxCell id="TyisrgHagVBHa4376Sq0-6" value="" style="endArrow=none;dashed=1;html=1;dashPattern=1 3;strokeWidth=2;rounded=0;entryX=0.5;entryY=0;entryDx=0;entryDy=0;exitX=0.5;exitY=1;exitDx=0;exitDy=0;fontFamily=Times New Roman;" edge="1" parent="1">
          <mxGeometry width="50" height="50" relative="1" as="geometry">
            <mxPoint x="399.5" y="309" as="sourcePoint" />
            <mxPoint x="429.75" y="309" as="targetPoint" />
          </mxGeometry>
        </mxCell>
        <mxCell id="TyisrgHagVBHa4376Sq0-13" style="edgeStyle=orthogonalEdgeStyle;rounded=0;orthogonalLoop=1;jettySize=auto;html=1;entryX=0.5;entryY=0;entryDx=0;entryDy=0;" edge="1" parent="1" source="TyisrgHagVBHa4376Sq0-9" target="TyisrgHagVBHa4376Sq0-11">
          <mxGeometry relative="1" as="geometry" />
        </mxCell>
        <mxCell id="TyisrgHagVBHa4376Sq0-9" value="执行后续检测流程" style="rounded=0;whiteSpace=wrap;html=1;fontFamily=宋体;" vertex="1" parent="1">
          <mxGeometry x="344.69" y="364" width="109.63" height="20" as="geometry" />
        </mxCell>
        <mxCell id="TyisrgHagVBHa4376Sq0-11" value="开始" style="rounded=1;whiteSpace=wrap;html=1;fontFamily=宋体;" vertex="1" parent="1">
          <mxGeometry x="374.5" y="409" width="50" height="20" as="geometry" />
        </mxCell>
      </root>
    </mxGraphModel>
  </diagram>
</mxfile>
